<svg height="100%" stroke-miterlimit="10" style="fill-rule:nonzero;clip-rule:evenodd;stroke-linecap:round;stroke-linejoin:round;" version="1.1" viewBox="0 0 300 80" width="100%" xml:space="preserve" xmlns="http://www.w3.org/2000/svg" xmlns:xlink="http://www.w3.org/1999/xlink">
<path d="M38.9371 2.76957L43.1156 23.1165C42.0894 22.1785 40.9531 21.3127 39.7068 20.5189C38.6806 19.9417 37.3976 19.4006 35.8583 18.8955C34.392 18.3183 32.706 18.0297 30.8 18.0297C28.4542 18.0297 26.5115 18.4987 24.9722 19.4367C23.5059 20.3747 22.7728 21.6373 22.7728 23.2247C22.7728 24.5955 23.3227 25.8221 24.4223 26.9045C25.5951 27.9146 27.0247 28.9968 28.7107 30.1513C30.3968 31.3056 32.2295 32.5684 34.2088 33.9391C36.2615 35.238 38.1307 36.8614 39.8168 38.8096C41.5028 40.6854 42.8958 42.9583 43.9954 45.6279C45.1683 48.2253 45.7547 51.3639 45.7547 55.0437C45.7547 58.6514 45.1316 61.9341 43.8854 64.8924C42.7124 67.7785 40.9898 70.2679 38.7172 72.3602C36.5179 74.3804 33.8056 75.9677 30.58 77.1222C27.3546 78.2044 23.6892 78.7456 19.584 78.7456C16.6517 78.7456 14.0493 78.4932 11.7768 77.9881C9.50426 77.4831 7.59827 76.9419 6.05882 76.3647C4.29945 75.6432 2.76 74.8495 1.44046 73.9836L1.44046 53.8532C2.8333 55.224 4.37276 56.4147 6.05882 57.4248C7.52497 58.3628 9.24769 59.2285 11.227 60.0222C13.2063 60.7437 15.3688 61.1046 17.7147 61.1046C20.5737 61.1046 22.5163 60.5634 23.5426 59.4812C24.569 58.3988 25.082 57.2083 25.082 55.9096C25.082 54.3222 24.4955 52.9152 23.3227 51.6886C22.2231 50.3899 20.7935 49.1272 19.0342 47.9006C17.3481 46.674 15.5155 45.4115 13.5362 44.1128C11.5569 42.7418 9.68754 41.1545 7.92815 39.3506C6.24209 37.4747 4.81261 35.3101 3.63969 32.8569C2.54007 30.4037 1.99027 27.4816 1.99027 24.0904C1.99027 20.6994 2.57673 17.5968 3.74965 14.7829C4.99586 11.969 6.71858 9.55185 8.91781 7.53161C11.1903 5.51134 13.9027 3.96008 17.0549 2.87779C20.2071 1.72337 23.7626 1.14615 27.7211 1.14615C30.067 1.14615 32.1928 1.32653 34.0988 1.68729C36.0048 2.04805 37.6176 2.4088 38.9371 2.76957Z" fill="#ff2478" fill-rule="nonzero" opacity="1" stroke="none"/>
<path d="M79.8005 35.4545L73.6426 35.4545L73.6426 52.8791C73.6426 54.3942 73.7526 55.6208 73.9726 56.5589C74.1925 57.4969 74.559 58.2546 75.0722 58.8317C75.6586 59.3368 76.4283 59.6974 77.3814 59.9139C78.3343 60.1304 79.5439 60.2386 81.0101 60.2386L81.0101 77.7716L71.7734 77.7716C66.0554 77.7716 61.6202 76.3647 58.4681 73.5507C55.3891 70.7368 53.8497 66.5158 53.8497 60.8881L53.8497 35.4545L49.0114 35.4545L49.0114 19.2202L53.8497 19.2202L53.8497 5.15059L73.6426 5.15059L73.6426 19.2202L79.8005 19.2202L79.8005 35.4545Z" fill="#ff2478" fill-rule="nonzero" opacity="1" stroke="none"/>
<path d="M85.4402 19.3285L105.233 19.3285L105.233 77.7716L85.4402 77.7716L85.4402 19.3285ZM85.4402 2.01197L105.233 2.01197L105.233 14.6747L85.4402 14.6747L85.4402 2.01197Z" fill="#ff2478" fill-rule="nonzero" opacity="1" stroke="none"/>
<path d="M109.683 48.4418C109.683 44.257 110.49 40.3607 112.102 36.7532C113.715 33.0734 115.878 29.8627 118.59 27.1208C121.376 24.379 124.601 22.2146 128.267 20.6271C131.932 19.0398 135.817 18.2462 139.922 18.2462C141.828 18.2462 143.441 18.3905 144.761 18.6791C146.08 18.9677 147.143 19.2924 147.95 19.6532C148.903 20.0861 149.709 20.555 150.369 21.0601L150.369 40.1083C149.929 39.4588 149.306 38.8817 148.499 38.3766C147.913 37.9437 147.07 37.5468 145.97 37.1862C144.944 36.8253 143.698 36.645 142.232 36.645C138.493 36.645 135.524 37.7995 133.325 40.1083C131.126 42.345 130.026 45.1229 130.026 48.4418C130.026 51.9051 131.162 54.7913 133.435 57.1001C135.707 59.3368 138.823 60.4551 142.782 60.4551C144.174 60.4551 145.347 60.3469 146.3 60.1304C147.253 59.8418 148.023 59.5171 148.609 59.1564C149.342 58.7956 149.929 58.3988 150.369 57.9658L150.369 76.1482C149.709 76.6533 148.903 77.0862 147.95 77.4469C147.143 77.8076 146.08 78.1323 144.761 78.4209C143.514 78.7097 141.938 78.8538 140.032 78.8538C135.854 78.8538 131.932 78.0602 128.267 76.4729C124.601 74.8855 121.376 72.7209 118.59 69.9791C115.878 67.2373 113.715 64.0267 112.102 60.3469C110.49 56.595 109.683 52.6266 109.683 48.4418Z" fill="#ff2478" fill-rule="nonzero" opacity="1" stroke="none"/>
<path d="M178.426 49.0912L178.426 77.7716L157.533 77.7716L157.533 2.01197L197.89 2.01197L202.287 20.6271L178.426 20.6271L178.426 30.476L197.89 30.476L197.89 49.0912L178.426 49.0912Z" fill="#ff2478" fill-rule="nonzero" opacity="1" stroke="none"/>
<path d="M207.763 2.01197L227.555 2.01197L227.555 77.7716L207.763 77.7716L207.763 2.01197Z" fill="#ff2478" fill-rule="nonzero" opacity="1" stroke="none"/>
<path d="M233.63 19.3285L253.423 19.3285L253.423 77.7716L233.63 77.7716L233.63 19.3285ZM233.63 2.01197L253.423 2.01197L253.423 14.6747L233.63 14.6747L233.63 2.01197Z" fill="#ff2478" fill-rule="nonzero" opacity="1" stroke="none"/>
<path d="M257.872 48.4418C257.872 44.257 258.678 40.3607 260.292 36.7532C261.904 33.0734 264.067 29.8627 266.779 27.1208C269.566 24.379 272.79 22.2146 276.457 20.6271C280.121 19.0398 284.007 18.2462 288.112 18.2462C290.018 18.2462 291.63 18.3905 292.95 18.6791C294.27 18.9677 295.333 19.2924 296.139 19.6532C297.092 20.0861 297.898 20.555 298.559 21.0601L298.559 40.1083C298.118 39.4588 297.496 38.8817 296.688 38.3766C296.102 37.9437 295.26 37.5468 294.16 37.1862C293.133 36.8253 291.887 36.645 290.422 36.645C286.682 36.645 283.713 37.7995 281.515 40.1083C279.315 42.345 278.216 45.1229 278.216 48.4418C278.216 51.9051 279.352 54.7913 281.623 57.1001C283.896 59.3368 287.012 60.4551 290.971 60.4551C292.364 60.4551 293.537 60.3469 294.49 60.1304C295.443 59.8418 296.213 59.5171 296.798 59.1564C297.533 58.7956 298.118 58.3988 298.559 57.9658L298.559 76.1482C297.898 76.6533 297.092 77.0862 296.139 77.4469C295.333 77.8076 294.27 78.1323 292.95 78.4209C291.703 78.7097 290.128 78.8538 288.222 78.8538C284.043 78.8538 280.121 78.0602 276.457 76.4729C272.79 74.8855 269.566 72.7209 266.779 69.9791C264.067 67.2373 261.904 64.0267 260.292 60.3469C258.678 56.595 257.872 52.6266 257.872 48.4418Z" fill="#ff2478" fill-rule="nonzero" opacity="1" stroke="none"/>
</svg>
